<?xml version="1.0" encoding="utf-8"?>
<!-- Generator: Adobe Illustrator 26.0.2, SVG Export Plug-In . SVG Version: 6.00 Build 0)  -->
<svg version="1.0" id="Layer_1" xmlns="http://www.w3.org/2000/svg" xmlns:xlink="http://www.w3.org/1999/xlink" x="0px" y="0px"
	 viewBox="0 0 9.1 8.4" style="enable-background:new 0 0 9.1 8.4;" xml:space="preserve">
<style type="text/css">
	.st0{fill:url(#Union_14_00000147212413760192084490000008278223390767792302_);}
</style>
<g id="Group_10918" transform="translate(-509.556 -1013.125)">
	
		<linearGradient id="Union_14_00000075844764934942627770000005289046593521606058_" gradientUnits="userSpaceOnUse" x1="387.6844" y1="-57.4221" x2="387.6844" y2="-57.218" gradientTransform="matrix(45.265 0 0 42.494 -17034.4238 3452.9504)">
		<stop  offset="0" style="stop-color:#0A7863"/>
		<stop  offset="0.31" style="stop-color:#23A77B"/>
		<stop  offset="0.552" style="stop-color:#2FB290"/>
		<stop  offset="1" style="stop-color:#77CDD2"/>
	</linearGradient>
	<path id="Union_14" style="fill:url(#Union_14_00000075844764934942627770000005289046593521606058_);" d="M513.7,1021.5v-2.9
		l-1.4,2.6l-0.6-0.4l1.4-2.5l-2.7,1.7l0,0v-0.8l2.4-1.4l-3.2,0.1l0,0l0.4-0.7l2.9-0.1l-2.5-1.4v-0.8l0,0l2.8,1.7l-1.3-2.4l0.4-0.7
		l0,0l1.6,2.8v-2.9h0.7v2.9l1.4-2.6l0.6,0.4l-1.4,2.5l2.7-1.7l0,0v0.8l-2.4,1.4l3.2-0.1l0,0l-0.4,0.7l-2.9,0.1l2.5,1.4v0.8l0,0
		l-2.8-1.7l1.3,2.4l-0.4,0.7l0,0l-1.6-2.8v2.9H513.7z"/>
</g>
</svg>
