<svg xmlns="http://www.w3.org/2000/svg" width="173.948" height="112.951" viewBox="0 0 173.948 112.951"><defs><style>.a{fill:#b2c2c4;}.b{fill:#35ce8d;}</style></defs><ellipse class="a" cx="4.064" cy="4.064" rx="4.064" ry="4.064" transform="translate(0 0)"/><ellipse class="a" cx="4.064" cy="4.064" rx="4.064" ry="4.064" transform="translate(27.638 0)"/><ellipse class="a" cx="4.064" cy="4.064" rx="4.064" ry="4.064" transform="translate(55.274 0)"/><ellipse class="a" cx="4.064" cy="4.064" rx="4.064" ry="4.064" transform="translate(82.91 0)"/><ellipse class="a" cx="4.064" cy="4.064" rx="4.064" ry="4.064" transform="translate(110.548 0)"/><ellipse class="a" cx="4.064" cy="4.064" rx="4.064" ry="4.064" transform="translate(138.183 0)"/><ellipse class="b" cx="4.064" cy="4.064" rx="4.064" ry="4.064" transform="translate(165.819 0)"/><ellipse class="a" cx="4.064" cy="4.064" rx="4.064" ry="4.064" transform="translate(0 26.282)"/><ellipse class="b" cx="4.064" cy="4.064" rx="4.064" ry="4.064" transform="translate(27.638 26.282)"/><ellipse class="a" cx="4.064" cy="4.064" rx="4.064" ry="4.064" transform="translate(55.274 26.282)"/><ellipse class="a" cx="4.064" cy="4.064" rx="4.064" ry="4.064" transform="translate(82.91 26.282)"/><ellipse class="a" cx="4.064" cy="4.064" rx="4.064" ry="4.064" transform="translate(110.548 26.282)"/><ellipse class="a" cx="4.064" cy="4.064" rx="4.064" ry="4.064" transform="translate(138.183 26.282)"/><ellipse class="a" cx="4.064" cy="4.064" rx="4.064" ry="4.064" transform="translate(165.819 26.282)"/><ellipse class="a" cx="4.064" cy="4.064" rx="4.064" ry="4.064" transform="translate(0 52.564)"/><ellipse class="a" cx="4.064" cy="4.064" rx="4.064" ry="4.064" transform="translate(27.638 52.564)"/><ellipse class="a" cx="4.064" cy="4.064" rx="4.064" ry="4.064" transform="translate(55.274 52.564)"/><ellipse class="a" cx="4.064" cy="4.064" rx="4.064" ry="4.064" transform="translate(82.91 52.564)"/><ellipse class="a" cx="4.064" cy="4.064" rx="4.064" ry="4.064" transform="translate(110.548 52.564)"/><ellipse class="a" cx="4.064" cy="4.064" rx="4.064" ry="4.064" transform="translate(138.183 52.564)"/><ellipse class="a" cx="4.064" cy="4.064" rx="4.064" ry="4.064" transform="translate(165.819 52.564)"/><ellipse class="a" cx="4.064" cy="4.064" rx="4.064" ry="4.064" transform="translate(0 78.846)"/><ellipse class="a" cx="4.064" cy="4.064" rx="4.064" ry="4.064" transform="translate(27.638 78.846)"/><ellipse class="a" cx="4.064" cy="4.064" rx="4.064" ry="4.064" transform="translate(55.274 78.846)"/><ellipse class="b" cx="4.064" cy="4.064" rx="4.064" ry="4.064" transform="translate(82.91 78.846)"/><ellipse class="a" cx="4.064" cy="4.064" rx="4.064" ry="4.064" transform="translate(110.548 78.846)"/><ellipse class="a" cx="4.064" cy="4.064" rx="4.064" ry="4.064" transform="translate(138.183 78.846)"/><ellipse class="a" cx="4.064" cy="4.064" rx="4.064" ry="4.064" transform="translate(165.819 78.846)"/><ellipse class="a" cx="3.572" cy="4.168" rx="3.572" ry="4.168" transform="translate(0.545 104.553)"/><ellipse class="a" cx="4.064" cy="4.064" rx="4.064" ry="4.064" transform="translate(27.638 104.822)"/><ellipse class="a" cx="4.064" cy="4.064" rx="4.064" ry="4.064" transform="translate(55.274 104.822)"/><ellipse class="a" cx="4.064" cy="4.064" rx="4.064" ry="4.064" transform="translate(82.91 104.822)"/><ellipse class="a" cx="4.064" cy="4.064" rx="4.064" ry="4.064" transform="translate(110.548 104.822)"/><ellipse class="a" cx="4.064" cy="4.064" rx="4.064" ry="4.064" transform="translate(138.183 104.822)"/><ellipse class="a" cx="4.064" cy="4.064" rx="4.064" ry="4.064" transform="translate(165.819 104.822)"/></svg>