<?xml version="1.0" encoding="utf-8"?>
<!-- Generator: Adobe Illustrator 25.2.0, SVG Export Plug-In . SVG Version: 6.00 Build 0)  -->
<svg version="1.1" id="Layer_1" xmlns="http://www.w3.org/2000/svg" xmlns:xlink="http://www.w3.org/1999/xlink" x="0px" y="0px"
	 viewBox="0 0 595.3 841.9" style="enable-background:new 0 0 595.3 841.9;" xml:space="preserve">
<style type="text/css">
	.st0{fill:#77CDD2;}
	.st1{fill:#54BD89;}
</style>
<path class="st0" d="M569.9,209.7C526.1,61.4,364.4-36.4,193.2,25c-72.6,26-130.9,82.3-158.4,154.4
	c-63,164.8,22.6,322.2,160.1,375.6c1.8,55.2,47.1,99.5,102.7,99.5c56.8,0,102.9-46.1,102.9-102.9c0-56.8-46.1-102.9-102.9-102.9
	c-22.9,0-44.1,7.6-61.2,20.3c-98-33.5-159.7-145.3-110.3-260.8c14.5-33.8,54.1-74,87.9-88.7C333.9,67.3,450.2,135,479.4,239.1
	c5.5,19.7,22.9,33.6,43.4,33.6C555.6,272.7,579.2,241.1,569.9,209.7z"/>
<path class="st1" d="M400.4,286.9c-1.8-55.2-47.1-99.5-102.7-99.5c-56.8,0-102.9,46.1-102.9,102.9s46.1,102.9,102.9,102.9
	c22.9,0,44.1-7.6,61.2-20.3c98,33.5,159.7,145.3,110.3,260.8c-14.5,33.8-54.1,74-87.9,88.7c-119.9,52.2-236.1-15.5-265.4-119.6
	c-5.5-19.7-22.9-33.6-43.4-33.6h0c-32.8,0-56.4,31.5-47.1,63c43.8,148.3,205.5,246.1,376.7,184.7c72.6-26,130.9-82.3,158.4-154.4
	C623.4,497.7,537.9,340.3,400.4,286.9z"/>
</svg>
